<?xml version="1.0" encoding="UTF-8" standalone="no"?>
<!DOCTYPE svg PUBLIC "-//W3C//DTD SVG 1.1//EN"
 "http://www.w3.org/Graphics/SVG/1.1/DTD/svg11.dtd">
<!-- Generated by graphviz version 2.38.0 (20140413.2041)
 -->
<!-- Title: %3 Pages: 1 -->
<svg width="2683pt" height="2294pt"
 viewBox="0.00 0.00 2682.56 2294.08" xmlns="http://www.w3.org/2000/svg" xmlns:xlink="http://www.w3.org/1999/xlink">
<g id="graph0" class="graph" transform="scale(1 1) rotate(0) translate(4 2290.08)">
<title>%3</title>
<polygon fill="white" stroke="none" points="-4,4 -4,-2290.08 2678.56,-2290.08 2678.56,4 -4,4"/>
<!-- knoblauch&#45;&#45;zwiebel -->
<g id="knoblauch&#45;&#45;zwiebel" class="edge"><title>knoblauch&#45;&#45;zwiebel</title>
<path fill="none" stroke="black" d="M1965.58,-558.92C1738.49,-683.05 1264.08,-942.361 1037,-1066.48"/>
</g>
<!-- knoblauch&#45;&#45;tonkabohne -->
<g id="knoblauch&#45;&#45;tonkabohne" class="edge"><title>knoblauch&#45;&#45;tonkabohne</title>
<path fill="none" stroke="black" d="M2137.26,-626.845C2180.2,-756.892 2244.38,-951.274 2287.31,-1081.32"/>
</g>
<!-- knoblauch&#45;&#45;tomate -->
<g id="knoblauch&#45;&#45;tomate" class="edge"><title>knoblauch&#45;&#45;tomate</title>
<path fill="none" stroke="black" d="M1951.48,-457.503C1710.2,-402.033 1219.84,-289.304 978.449,-233.809"/>
</g>
<!-- knoblauch&#45;&#45;thymian -->
<g id="knoblauch&#45;&#45;thymian" class="edge"><title>knoblauch&#45;&#45;thymian</title>
<path fill="none" stroke="black" d="M1963.88,-556.176C1624.64,-731.89 705.919,-1207.75 366.651,-1383.47"/>
</g>
<!-- knoblauch&#45;&#45;tomatenmark -->
<g id="knoblauch&#45;&#45;tomatenmark" class="edge"><title>knoblauch&#45;&#45;tomatenmark</title>
<path fill="none" stroke="black" d="M2004.57,-604.739C1916.13,-720.978 1780.21,-899.625 1691.81,-1015.81"/>
</g>
<!-- knoblauch&#45;&#45;rosmarin -->
<g id="knoblauch&#45;&#45;rosmarin" class="edge"><title>knoblauch&#45;&#45;rosmarin</title>
<path fill="none" stroke="black" d="M1994.77,-596.426C1740.86,-874.812 1060.03,-1621.25 806.24,-1899.51"/>
</g>
<!-- knoblauch&#45;&#45;nudeln -->
<g id="knoblauch&#45;&#45;nudeln" class="edge"><title>knoblauch&#45;&#45;nudeln</title>
<path fill="none" stroke="black" d="M1948.4,-504.16C1613.36,-537.633 783.184,-620.578 448.232,-654.043"/>
</g>
<!-- knoblauch&#45;&#45;olivenöl -->
<g id="knoblauch&#45;&#45;olivenöl" class="edge"><title>knoblauch&#45;&#45;olivenöl</title>
<path fill="none" stroke="black" d="M2033.71,-621.882C1897.08,-931.385 1557.45,-1700.7 1420.86,-2010.1"/>
</g>
<!-- kapern&#45;&#45;knoblauch -->
<g id="kapern&#45;&#45;knoblauch" class="edge"><title>kapern&#45;&#45;knoblauch</title>
<path fill="none" stroke="black" d="M1621.94,-216.493C1723.45,-275.513 1866.04,-358.419 1967.5,-417.413"/>
</g>
<!-- kapern&#45;&#45;zwiebel -->
<g id="kapern&#45;&#45;zwiebel" class="edge"><title>kapern&#45;&#45;zwiebel</title>
<path fill="none" stroke="black" d="M1423.85,-268.08C1311.16,-458.535 1096.81,-820.835 984.076,-1011.37"/>
</g>
<!-- kapern&#45;&#45;tonkabohne -->
<g id="kapern&#45;&#45;tonkabohne" class="edge"><title>kapern&#45;&#45;tonkabohne</title>
<path fill="none" stroke="black" d="M1585.66,-257.705C1746.06,-464.011 2083.27,-897.723 2243.87,-1104.29"/>
</g>
<!-- kapern&#45;&#45;tomate -->
<g id="kapern&#45;&#45;tomate" class="edge"><title>kapern&#45;&#45;tomate</title>
<path fill="none" stroke="black" d="M1353.75,-156.505C1243.39,-166.122 1091.62,-179.347 981.264,-188.963"/>
</g>
<!-- kapern&#45;&#45;thymian -->
<g id="kapern&#45;&#45;thymian" class="edge"><title>kapern&#45;&#45;thymian</title>
<path fill="none" stroke="black" d="M1397.17,-247.833C1161.62,-492.196 574.395,-1101.39 338.716,-1345.88"/>
</g>
<!-- kapern&#45;&#45;karotte -->
<g id="kapern&#45;&#45;karotte" class="edge"><title>kapern&#45;&#45;karotte</title>
<path fill="none" stroke="black" d="M1536.34,-282.923C1627.91,-608.483 1855.54,-1417.71 1947.09,-1743.16"/>
</g>
<!-- kapern&#45;&#45;tomatenmark -->
<g id="kapern&#45;&#45;tomatenmark" class="edge"><title>kapern&#45;&#45;tomatenmark</title>
<path fill="none" stroke="black" d="M1512.82,-287.195C1533.16,-474.309 1568.57,-800.102 1588.91,-987.275"/>
</g>
<!-- kapern&#45;&#45;rosmarin -->
<g id="kapern&#45;&#45;rosmarin" class="edge"><title>kapern&#45;&#45;rosmarin</title>
<path fill="none" stroke="black" d="M1441.05,-276.79C1296.03,-619.41 910.449,-1530.33 765.365,-1873.09"/>
</g>
<!-- kapern&#45;&#45;nudeln -->
<g id="kapern&#45;&#45;nudeln" class="edge"><title>kapern&#45;&#45;nudeln</title>
<path fill="none" stroke="black" d="M1365.36,-201.996C1135.96,-302.87 666.075,-509.482 436.636,-610.369"/>
</g>
<!-- kapern&#45;&#45;olivenöl -->
<g id="kapern&#45;&#45;olivenöl" class="edge"><title>kapern&#45;&#45;olivenöl</title>
<path fill="none" stroke="black" d="M1487.57,-287.697C1462.76,-655.909 1397.11,-1630.09 1372.29,-1998.34"/>
</g>
<!-- tonkabohne&#45;&#45;zwiebel -->
<g id="tonkabohne&#45;&#45;zwiebel" class="edge"><title>tonkabohne&#45;&#45;zwiebel</title>
<path fill="none" stroke="black" d="M2188.72,-1209.99C1916.08,-1194.12 1327.06,-1159.83 1054.42,-1143.96"/>
</g>
<!-- tomate&#45;&#45;zwiebel -->
<g id="tomate&#45;&#45;zwiebel" class="edge"><title>tomate&#45;&#45;zwiebel</title>
<path fill="none" stroke="black" d="M848.965,-345.121C862.654,-520.728 885.684,-816.151 899.377,-991.812"/>
</g>
<!-- tomate&#45;&#45;tonkabohne -->
<g id="tomate&#45;&#45;tonkabohne" class="edge"><title>tomate&#45;&#45;tonkabohne</title>
<path fill="none" stroke="black" d="M956.936,-282.538C1236.8,-472.926 1933.46,-946.859 2213.36,-1137.27"/>
</g>
<!-- tomate&#45;&#45;tomatenmark -->
<g id="tomate&#45;&#45;tomatenmark" class="edge"><title>tomate&#45;&#45;tomatenmark</title>
<path fill="none" stroke="black" d="M929.489,-312.618C1076.96,-491.321 1365.12,-840.527 1512.66,-1019.31"/>
</g>
<!-- thymian&#45;&#45;zwiebel -->
<g id="thymian&#45;&#45;zwiebel" class="edge"><title>thymian&#45;&#45;zwiebel</title>
<path fill="none" stroke="black" d="M369.281,-1388.7C487.756,-1333.3 661.408,-1252.1 779.865,-1196.71"/>
</g>
<!-- thymian&#45;&#45;tonkabohne -->
<g id="thymian&#45;&#45;tonkabohne" class="edge"><title>thymian&#45;&#45;tonkabohne</title>
<path fill="none" stroke="black" d="M382.021,-1433.98C764.788,-1391.67 1806.78,-1276.48 2189.27,-1234.2"/>
</g>
<!-- thymian&#45;&#45;tomate -->
<g id="thymian&#45;&#45;tomate" class="edge"><title>thymian&#45;&#45;tomate</title>
<path fill="none" stroke="black" d="M300.936,-1319.78C415.976,-1080.13 660.143,-571.49 775.246,-331.709"/>
</g>
<!-- thymian&#45;&#45;tomatenmark -->
<g id="thymian&#45;&#45;tomatenmark" class="edge"><title>thymian&#45;&#45;tomatenmark</title>
<path fill="none" stroke="black" d="M378.902,-1417.03C641.015,-1355.77 1201.92,-1224.68 1464.06,-1163.41"/>
</g>
<!-- karotte&#45;&#45;knoblauch -->
<g id="karotte&#45;&#45;knoblauch" class="edge"><title>karotte&#45;&#45;knoblauch</title>
<path fill="none" stroke="black" d="M1997.07,-1738.24C2017.39,-1471.03 2060.76,-900.759 2081.08,-633.553"/>
</g>
<!-- karotte&#45;&#45;zwiebel -->
<g id="karotte&#45;&#45;zwiebel" class="edge"><title>karotte&#45;&#45;zwiebel</title>
<path fill="none" stroke="black" d="M1867.7,-1799.79C1660.76,-1656.18 1235.74,-1361.23 1028.89,-1217.69"/>
</g>
<!-- karotte&#45;&#45;tonkabohne -->
<g id="karotte&#45;&#45;tonkabohne" class="edge"><title>karotte&#45;&#45;tonkabohne</title>
<path fill="none" stroke="black" d="M2052.93,-1754.03C2114.23,-1636.61 2204.55,-1463.59 2265.82,-1346.2"/>
</g>
<!-- karotte&#45;&#45;tomate -->
<g id="karotte&#45;&#45;tomate" class="edge"><title>karotte&#45;&#45;tomate</title>
<path fill="none" stroke="black" d="M1904.7,-1762.81C1693.52,-1453.77 1130.08,-629.237 919.062,-320.434"/>
</g>
<!-- karotte&#45;&#45;thymian -->
<g id="karotte&#45;&#45;thymian" class="edge"><title>karotte&#45;&#45;thymian</title>
<path fill="none" stroke="black" d="M1846.08,-1847.35C1518.54,-1766.36 705.61,-1565.35 378.318,-1484.42"/>
</g>
<!-- karotte&#45;&#45;tomatenmark -->
<g id="karotte&#45;&#45;tomatenmark" class="edge"><title>karotte&#45;&#45;tomatenmark</title>
<path fill="none" stroke="black" d="M1920.75,-1753.24C1850.61,-1615.16 1739.9,-1397.18 1669.79,-1259.17"/>
</g>
<!-- karotte&#45;&#45;rosmarin -->
<g id="karotte&#45;&#45;rosmarin" class="edge"><title>karotte&#45;&#45;rosmarin</title>
<path fill="none" stroke="black" d="M1842.75,-1895.91C1597.1,-1919.77 1098.57,-1968.18 852.751,-1992.05"/>
</g>
<!-- karotte&#45;&#45;nudeln -->
<g id="karotte&#45;&#45;nudeln" class="edge"><title>karotte&#45;&#45;nudeln</title>
<path fill="none" stroke="black" d="M1869.24,-1797.61C1561.19,-1575.27 729.78,-975.193 421.661,-752.804"/>
</g>
<!-- karotte&#45;&#45;olivenöl -->
<g id="karotte&#45;&#45;olivenöl" class="edge"><title>karotte&#45;&#45;olivenöl</title>
<path fill="none" stroke="black" d="M1853.14,-1937.46C1747.72,-1981.44 1601.1,-2042.59 1495.67,-2086.57"/>
</g>
<!-- tomatenmark&#45;&#45;zwiebel -->
<g id="tomatenmark&#45;&#45;zwiebel" class="edge"><title>tomatenmark&#45;&#45;zwiebel</title>
<path fill="none" stroke="black" d="M1460.29,-1131.63C1341.36,-1132.48 1173.47,-1133.69 1054.6,-1134.55"/>
</g>
<!-- tomatenmark&#45;&#45;tonkabohne -->
<g id="tomatenmark&#45;&#45;tonkabohne" class="edge"><title>tomatenmark&#45;&#45;tonkabohne</title>
<path fill="none" stroke="black" d="M1747.46,-1147.83C1875.22,-1163.23 2061.44,-1185.68 2189.29,-1201.09"/>
</g>
<!-- rosmarin&#45;&#45;zwiebel -->
<g id="rosmarin&#45;&#45;zwiebel" class="edge"><title>rosmarin&#45;&#45;zwiebel</title>
<path fill="none" stroke="black" d="M741.588,-1865.67C779.126,-1703.5 840.535,-1438.21 878.082,-1276"/>
</g>
<!-- rosmarin&#45;&#45;tonkabohne -->
<g id="rosmarin&#45;&#45;tonkabohne" class="edge"><title>rosmarin&#45;&#45;tonkabohne</title>
<path fill="none" stroke="black" d="M838.873,-1943.04C1142.98,-1795.5 1898.88,-1428.77 2202.89,-1281.27"/>
</g>
<!-- rosmarin&#45;&#45;tomate -->
<g id="rosmarin&#45;&#45;tomate" class="edge"><title>rosmarin&#45;&#45;tomate</title>
<path fill="none" stroke="black" d="M719.362,-1862.14C743.451,-1524.28 803.415,-683.263 827.506,-345.37"/>
</g>
<!-- rosmarin&#45;&#45;thymian -->
<g id="rosmarin&#45;&#45;thymian" class="edge"><title>rosmarin&#45;&#45;thymian</title>
<path fill="none" stroke="black" d="M615.847,-1895.79C533.449,-1798.42 413.915,-1657.15 331.573,-1559.84"/>
</g>
<!-- rosmarin&#45;&#45;tomatenmark -->
<g id="rosmarin&#45;&#45;tomatenmark" class="edge"><title>rosmarin&#45;&#45;tomatenmark</title>
<path fill="none" stroke="black" d="M812.253,-1905.15C984.58,-1736.67 1329.06,-1399.87 1501.37,-1231.41"/>
</g>
<!-- nudeln&#45;&#45;zwiebel -->
<g id="nudeln&#45;&#45;zwiebel" class="edge"><title>nudeln&#45;&#45;zwiebel</title>
<path fill="none" stroke="black" d="M419.017,-756.535C527.126,-839.899 688.466,-964.308 796.499,-1047.61"/>
</g>
<!-- nudeln&#45;&#45;tonkabohne -->
<g id="nudeln&#45;&#45;tonkabohne" class="edge"><title>nudeln&#45;&#45;tonkabohne</title>
<path fill="none" stroke="black" d="M443.682,-706.078C814.237,-806.576 1822.79,-1080.11 2193.47,-1180.64"/>
</g>
<!-- nudeln&#45;&#45;tomate -->
<g id="nudeln&#45;&#45;tomate" class="edge"><title>nudeln&#45;&#45;tomate</title>
<path fill="none" stroke="black" d="M413.215,-573.334C505.453,-492.542 637.207,-377.138 729.401,-296.385"/>
</g>
<!-- nudeln&#45;&#45;thymian -->
<g id="nudeln&#45;&#45;thymian" class="edge"><title>nudeln&#45;&#45;thymian</title>
<path fill="none" stroke="black" d="M292.518,-812.172C280.605,-952.794 262.568,-1165.73 250.662,-1306.27"/>
</g>
<!-- nudeln&#45;&#45;tomatenmark -->
<g id="nudeln&#45;&#45;tomatenmark" class="edge"><title>nudeln&#45;&#45;tomatenmark</title>
<path fill="none" stroke="black" d="M440.425,-716.649C689.932,-805.374 1218.75,-993.42 1468.47,-1082.22"/>
</g>
<!-- nudeln&#45;&#45;rosmarin -->
<g id="nudeln&#45;&#45;rosmarin" class="edge"><title>nudeln&#45;&#45;rosmarin</title>
<path fill="none" stroke="black" d="M346.453,-806.495C424.098,-1063.31 589.837,-1611.51 667.425,-1868.14"/>
</g>
<!-- nudeln&#45;&#45;olivenöl -->
<g id="nudeln&#45;&#45;olivenöl" class="edge"><title>nudeln&#45;&#45;olivenöl</title>
<path fill="none" stroke="black" d="M388.816,-785.563C586.843,-1061.42 1080.61,-1749.25 1278.56,-2025"/>
</g>
<!-- olivenöl&#45;&#45;zwiebel -->
<g id="olivenöl&#45;&#45;zwiebel" class="edge"><title>olivenöl&#45;&#45;zwiebel</title>
<path fill="none" stroke="black" d="M1303.51,-2010.49C1216.88,-1817.6 1056.33,-1460.11 969.693,-1267.2"/>
</g>
<!-- olivenöl&#45;&#45;tonkabohne -->
<g id="olivenöl&#45;&#45;tonkabohne" class="edge"><title>olivenöl&#45;&#45;tonkabohne</title>
<path fill="none" stroke="black" d="M1467.33,-2042.34C1653.96,-1864.6 2041.95,-1495.11 2228.27,-1317.68"/>
</g>
<!-- olivenöl&#45;&#45;tomate -->
<g id="olivenöl&#45;&#45;tomate" class="edge"><title>olivenöl&#45;&#45;tomate</title>
<path fill="none" stroke="black" d="M1324.96,-2002.9C1228.27,-1645.39 972.011,-697.845 875.366,-340.493"/>
</g>
<!-- olivenöl&#45;&#45;thymian -->
<g id="olivenöl&#45;&#45;thymian" class="edge"><title>olivenöl&#45;&#45;thymian</title>
<path fill="none" stroke="black" d="M1239.9,-2066.51C1023.68,-1933.37 577.314,-1658.49 361.145,-1525.37"/>
</g>
<!-- olivenöl&#45;&#45;tomatenmark -->
<g id="olivenöl&#45;&#45;tomatenmark" class="edge"><title>olivenöl&#45;&#45;tomatenmark</title>
<path fill="none" stroke="black" d="M1396.11,-2001.96C1442.22,-1809.14 1524.76,-1464 1570.91,-1271.01"/>
</g>
<!-- olivenöl&#45;&#45;rosmarin -->
<g id="olivenöl&#45;&#45;rosmarin" class="edge"><title>olivenöl&#45;&#45;rosmarin</title>
<path fill="none" stroke="black" d="M1221.61,-2112.72C1111.76,-2089.85 959.98,-2058.24 850.128,-2035.37"/>
</g>
<!-- knoblauch -->
<g id="node1" class="node"><title>knoblauch</title>
<ellipse fill="lightgrey" stroke="black" cx="2092.01" cy="-489.81" rx="144" ry="144"/>
<text text-anchor="middle" x="2092.01" y="-459.81" font-family="Arial" font-size="120.00">Knoblauch</text>
</g>
<!-- zwiebel -->
<g id="node2" class="node"><title>zwiebel</title>
<ellipse fill="lightgrey" stroke="black" cx="910.585" cy="-1135.58" rx="144" ry="144"/>
<text text-anchor="middle" x="910.585" y="-1105.58" font-family="Arial" font-size="120.00">Zwiebel</text>
</g>
<!-- kapern -->
<g id="node3" class="node"><title>kapern</title>
<ellipse fill="lightgrey" stroke="black" cx="1497.26" cy="-144" rx="144" ry="144"/>
<text text-anchor="middle" x="1497.26" y="-114" font-family="Arial" font-size="120.00">Kapern</text>
</g>
<!-- tonkabohne -->
<g id="node4" class="node"><title>tonkabohne</title>
<ellipse fill="lightgrey" stroke="black" cx="2332.56" cy="-1218.36" rx="144" ry="144"/>
<text text-anchor="middle" x="2332.56" y="-1188.36" font-family="Arial" font-size="120.00">Tonkabohne</text>
</g>
<!-- tomate -->
<g id="node5" class="node"><title>tomate</title>
<ellipse fill="lightgrey" stroke="black" cx="837.766" cy="-201.467" rx="144" ry="144"/>
<text text-anchor="middle" x="837.766" y="-171.467" font-family="Arial" font-size="120.00">Tomate</text>
</g>
<!-- thymian -->
<g id="node6" class="node"><title>thymian</title>
<ellipse fill="lightgrey" stroke="black" cx="238.5" cy="-1449.85" rx="144" ry="144"/>
<text text-anchor="middle" x="238.5" y="-1419.85" font-family="Arial" font-size="120.00">Thymian</text>
</g>
<!-- karotte -->
<g id="node7" class="node"><title>karotte</title>
<ellipse fill="lightgrey" stroke="black" cx="1986.14" cy="-1881.98" rx="144" ry="144"/>
<text text-anchor="middle" x="1986.14" y="-1851.98" font-family="Arial" font-size="120.00">Karotte</text>
</g>
<!-- tomatenmark -->
<g id="node8" class="node"><title>tomatenmark</title>
<ellipse fill="lightgrey" stroke="black" cx="1604.49" cy="-1130.59" rx="144" ry="144"/>
<text text-anchor="middle" x="1604.49" y="-1100.59" font-family="Arial" font-size="120.00">Tomatenmark</text>
</g>
<!-- rosmarin -->
<g id="node9" class="node"><title>rosmarin</title>
<ellipse fill="lightgrey" stroke="black" cx="709.104" cy="-2006" rx="144" ry="144"/>
<text text-anchor="middle" x="709.104" y="-1976" font-family="Arial" font-size="120.00">Rosmarin</text>
</g>
<!-- nudeln -->
<g id="node10" class="node"><title>nudeln</title>
<ellipse fill="lightgrey" stroke="black" cx="304.698" cy="-668.384" rx="144" ry="144"/>
<text text-anchor="middle" x="304.698" y="-638.384" font-family="Arial" font-size="120.00">Nudeln</text>
</g>
<!-- olivenöl -->
<g id="node11" class="node"><title>olivenöl</title>
<ellipse fill="lightgrey" stroke="black" cx="1362.6" cy="-2142.08" rx="144" ry="144"/>
<text text-anchor="middle" x="1362.6" y="-2112.08" font-family="Arial" font-size="120.00">Olivenöl</text>
</g>
</g>
</svg>
